# xmcd
#
# Track frame offsets: 
#        150
#        19727
#        32167
#        43785
#        64892
#        80707
#        102952
#        123795
#        139382
#        155242
#
# Disc length: 2261 seconds
#
# Revision: 2
# Processed by: cddbd v1.5.1PL2 Copyright (c) Steve Scherf et al.
# Submitted via: ExactAudioCopy v0.95b3
#
DISCID=8c08d30a
DTITLE=Ted Hawkins - The Next Hundred Years
DYEAR=1994
DGENRE=Blues
TTITLE0=Strange Conversation
TTITLE1=Big Things
TTITLE2=There Stands the Glass
TTITLE3=Biloxi
TTITLE4=Groovy Little Things
TTITLE5=The Good and the Bad
TTITLE6=Afraid
TTITLE7=Green-Eyed Girl
TTITLE8=Ladder of Success
TTITLE9=Long As I Can See the Light
EXTD=
EXTT0=
EXTT1=
EXTT2=
EXTT3=
EXTT4=
EXTT5=
EXTT6=
EXTT7=
EXTT8=
EXTT9=
PLAYORDER=
